<?xml version="1.0" encoding="UTF-8" standalone="no"?>
<!-- Created with Inkscape (http://www.inkscape.org/) -->

<svg
   version="1.1"
   id="svg1"
   width="350"
   height="454"
   viewBox="0 0 358 462"
   sodipodi:docname="Logonv.svg"
   inkscape:version="1.3.2 (091e20e, 2023-11-25, custom)"
   xmlns:inkscape="http://www.inkscape.org/namespaces/inkscape"
   xmlns:sodipodi="http://sodipodi.sourceforge.net/DTD/sodipodi-0.dtd"
   xmlns:xlink="http://www.w3.org/1999/xlink"
   xmlns="http://www.w3.org/2000/svg"
   xmlns:svg="http://www.w3.org/2000/svg">
  <defs
     id="defs1">
    <linearGradient
       id="linearGradient9"
       inkscape:collect="always">
      <stop
         style="stop-color:#fffe19;stop-opacity:0.78378379;"
         offset="0.51309556"
         id="stop11" />
      <stop
         style="stop-color:#ffee49;stop-opacity:1;"
         offset="0.66818774"
         id="stop12" />
      <stop
         style="stop-color:#dd4800;stop-opacity:0.83397681;"
         offset="1"
         id="stop10" />
    </linearGradient>
    <linearGradient
       id="linearGradient7"
       inkscape:collect="always">
      <stop
         style="stop-color:#fa4000;stop-opacity:1;"
         offset="0"
         id="stop7" />
      <stop
         style="stop-color:#f21818;stop-opacity:1;"
         offset="0.55961072"
         id="stop9" />
      <stop
         style="stop-color:#ff5c5c;stop-opacity:1;"
         offset="1"
         id="stop8" />
    </linearGradient>
    <linearGradient
       id="linearGradient5"
       inkscape:collect="always">
      <stop
         style="stop-color:#ba0000;stop-opacity:1;"
         offset="0.35523114"
         id="stop5" />
      <stop
         style="stop-color:#ff5e5e;stop-opacity:1;"
         offset="1"
         id="stop6" />
    </linearGradient>
    <linearGradient
       inkscape:collect="always"
       xlink:href="#linearGradient5"
       id="linearGradient6"
       x1="125.84805"
       y1="171.53996"
       x2="184.73811"
       y2="54.027767"
       gradientUnits="userSpaceOnUse" />
    <linearGradient
       inkscape:collect="always"
       xlink:href="#linearGradient7"
       id="linearGradient8"
       x1="155.34158"
       y1="261.59848"
       x2="206.44675"
       y2="56.622875"
       gradientUnits="userSpaceOnUse" />
    <radialGradient
       inkscape:collect="always"
       xlink:href="#linearGradient9"
       id="radialGradient11"
       cx="155.73099"
       cy="231.82623"
       fx="155.73099"
       fy="231.82623"
       r="18.88006"
       gradientTransform="matrix(0.8193023,1.977718,-1.1410409,0.47269519,292.66345,-185.74885)"
       gradientUnits="userSpaceOnUse" />
  </defs>
  <sodipodi:namedview
     id="namedview1"
     pagecolor="#ffffff"
     bordercolor="#000000"
     borderopacity="0.25"
     inkscape:showpageshadow="2"
     inkscape:pageopacity="0.0"
     inkscape:pagecheckerboard="0"
     inkscape:deskcolor="#d1d1d1"
     inkscape:zoom="1.8636364"
     inkscape:cx="211.68293"
     inkscape:cy="229.92683"
     inkscape:window-width="1920"
     inkscape:window-height="1057"
     inkscape:window-x="1592"
     inkscape:window-y="-8"
     inkscape:window-maximized="1"
     inkscape:current-layer="svg1" />
  <path
     style="display:inline;fill:url(#linearGradient8);stroke:#000000;stroke-width:2.3622;stroke-opacity:0"
     d="m 203.33331,126.06502 c 1.46608,-13.55675 -2.65038,-40.211361 -2.65038,-40.211361 l -5.90244,-22.536586 -3.21951,42.926827 -2.14635,18.2439 c 0,0 -8.08374,20.35857 -14.01631,29.47966 -9.26292,14.24137 -22.57911,25.40973 -33.2032,38.66669 -12.14725,15.15759 -26.45799,29.17833 -34.87805,46.68292 -5.9292,12.32631 -10.490876,26.02981 -10.352281,39.70732 0.161959,15.9832 4.753831,32.47492 13.035211,46.14634 4.58875,7.57539 19.31707,18.2439 19.31707,18.2439 0,0 -10.24396,-23.87172 -8.01623,-35.12264 2.28132,-11.52149 3.35173,-14.58705 8.08133,-31.85288 1.7645,-6.44147 8.93224,-17.93516 8.93224,-17.93516 0,0 -2.24122,11.68444 -0.41197,21.05703 1.29154,6.61754 3.99032,13.03101 7.51219,18.78048 2.04243,3.33428 5.14611,5.88842 7.72329,8.82901 3.02843,3.45546 7.10411,6.21686 9.09498,10.35787 1.80478,3.75394 2.19054,8.13808 2.18449,12.30333 -0.007,4.91113 -2.61783,14.49897 -2.61783,14.49897 0,0 12.87966,-10.2313 17.30651,-16.99778 3.95588,-6.04658 5.97539,-9.3854 7.72328,-20.25445 1.5886,-9.87847 -5.02077,-22.84304 -12.66137,-36.04329 -4.57757,-7.90842 -8.93807,-16.26518 -10.73171,-25.22509 -1.50083,-7.49725 -1.40669,-15.45421 0.16276,-22.93739 2.33232,-11.12062 13.47414,-31.31166 13.47414,-31.31166 0,0 14.85265,-25.61706 19.94573,-39.44135 3.08928,-8.38531 5.6513,-19.92287 6.31441,-26.05461 z"
     id="path4"
     sodipodi:nodetypes="sccccaaaaacsscsaaaacassaacas" />
  <path
     style="display:inline;fill:url(#linearGradient6);stroke:#000000;stroke-width:2.3622;stroke-opacity:0;fill-opacity:1"
     d="m 167.41463,16.254723 c 0,0 7.12754,21.151569 7.79398,32.162573 0.94842,15.670033 -2.90161,38.502781 -5.49047,46.774991 -6.89797,22.041133 -28.12252,36.124663 -46.14634,53.918933 -10.66103,10.52524 -23.891531,32.79122 -23.35495,42.98634 0.53659,10.19512 1.5121,24.14634 1.5121,24.14634 l 15.24666,-17.70731 c 0,0 21.60381,-23.72868 35.03521,-34.49863 21.62097,-17.33675 37.62248,-49.39883 37.40381,-49.20869 l 2.14635,-12.34147 c 0,0 9.97597,-17.364673 1.38749,-43.561058 C 186.47911,39.19404 167.41463,16.254723 167.41463,16.254723 Z"
     id="path2"
     sodipodi:nodetypes="casssccsccsc" />
  <path
     style="display:inline;fill:url(#radialGradient11);stroke:#000000;stroke-width:2.3622;stroke-opacity:0"
     d="m 165.5882,193.64222 c 0,0 -3.3267,17.98077 -3.59893,27.08408 -0.24814,8.29802 0.049,16.72501 1.79947,24.84009 1.85548,8.60182 9.11636,24.77499 9.11636,24.77499 0,0 -4.8993,-1.25061 -7.10581,-2.4337 -8.08322,-4.33407 -16.27172,-9.45311 -21.83166,-16.7476 -3.0857,-4.04835 -5.16479,-9.09011 -5.75086,-14.14651 -0.72071,-6.21795 0.76986,-12.66854 2.90518,-18.55265 1.87067,-5.15484 4.69023,-10.13066 8.47097,-14.10279 4.42461,-4.6486 15.99528,-10.71591 15.99528,-10.71591 z"
     id="path5"
     sodipodi:nodetypes="caacaaaaac" />
  <path
     style="display:inline;fill:#ba0f00;stroke:#000000;stroke-width:2.3622;stroke-opacity:0"
     d="m 82.287273,191.24107 c 0,0 -3.403639,15.02998 3.756098,26.04346 8.724942,13.42115 8.395653,14.07583 8.395653,14.07583 0,0 -8.497785,19.63745 -9.371176,30.11388 -1.645257,19.73504 -1.005783,41.23821 8.016231,58.86722 7.247701,14.16201 19.374571,28.23984 34.590691,32.88329 15.14909,4.623 34.77372,2.31683 46.84962,-7.93206 15.1047,-12.81946 24.70352,-33.25365 19.31707,-56.20733 -5.57507,-23.75746 -17.00333,-38.00374 -19.71951,-44.67073 -2.95122,-7.2439 -8.04878,-28.57317 -7.24391,-36.48781 1.58274,-15.56374 14.35367,-24.81706 14.35367,-24.81706 0,0 -3.36801,13.00822 1.20731,26.56097 2.53301,7.50315 6.70732,15.96341 10.59757,20.52439 12.06756,14.14816 23.78732,28.01897 28.84146,36.62195 4.76285,8.10715 4.96342,23.60976 4.96342,23.60976 0,0 7.13199,-6.3392 7.9817,-28.64024 0.6854,-17.9886 -1.94512,-46.61586 -3.55488,-54.66464 -1.60975,-8.04878 10.8761,18.26972 13.41464,28.43903 4.46717,17.89532 5.232,37.00083 2.68292,55.26829 -1.93079,13.83663 -5.3815,28.27713 -13.41463,39.70732 -9.58891,13.64387 -23.86516,24.50063 -39.17073,31.12195 -12.74327,5.51284 -27.37497,7.13281 -41.21548,6.02705 -15.91056,-1.27114 -32.38786,-5.52509 -45.67881,-14.3632 -16.610599,-11.04559 -30.308551,-27.57445 -38.634139,-45.70182 -7.805228,-16.99439 -8.387395,-41.52417 -8.89969,-55.3929 -0.317136,-8.58541 4.588812,-35.90111 7.79397,-41.66953 7.997327,-14.39302 14.140932,-19.31707 14.140932,-19.31707 z"
     id="path3"
     sodipodi:nodetypes="cscaaaassscssscssaaaaaaassc" />
</svg>
